<?xml version="1.0" encoding="UTF-8" standalone="no"?>
<!-- Created with Inkscape (http://www.inkscape.org/) -->

<svg
   xmlns:dc="http://purl.org/dc/elements/1.1/"
   xmlns:cc="http://creativecommons.org/ns#"
   xmlns:rdf="http://www.w3.org/1999/02/22-rdf-syntax-ns#"
   xmlns:svg="http://www.w3.org/2000/svg"
   xmlns="http://www.w3.org/2000/svg"
   xmlns:sodipodi="http://sodipodi.sourceforge.net/DTD/sodipodi-0.dtd"
   xmlns:inkscape="http://www.inkscape.org/namespaces/inkscape"
   version="1.0"
   inkscape:output_extension="org.inkscape.output.svg.inkscape"
   width="301"
   height="287.87796"
   id="svg2"
   sodipodi:version="0.32"
   inkscape:version="0.47 r22583"
   sodipodi:docname="lcmeter.svg"
   style="enable-background:new"
   inkscape:export-filename="/home/boobaloo/lab_voltmeter.png"
   inkscape:export-xdpi="80.132889"
   inkscape:export-ydpi="80.132889">
  <sodipodi:namedview
     id="base"
     pagecolor="#ffffff"
     bordercolor="#666666"
     borderopacity="1.0"
     inkscape:pageopacity="0.0"
     inkscape:pageshadow="2"
     inkscape:zoom="1.6569521"
     inkscape:cx="150.5"
     inkscape:cy="143.93898"
     inkscape:document-units="px"
     inkscape:current-layer="svg2"
     showgrid="false"
     showguides="true"
     inkscape:guide-bbox="true"
     inkscape:snap-midpoints="true"
     inkscape:snap-bbox="true"
     inkscape:object-nodes="true"
     inkscape:window-width="1024"
     inkscape:window-height="700"
     inkscape:window-x="0"
     inkscape:window-y="27"
     inkscape:snap-global="true"
     inkscape:object-paths="true"
     inkscape:snap-intersection-paths="true"
     inkscape:snap-to-guides="true"
     inkscape:window-maximized="0" />
  <defs
     id="defs4">
    <inkscape:perspective
       sodipodi:type="inkscape:persp3d"
       inkscape:vp_x="0 : 143.93898 : 1"
       inkscape:vp_y="0 : 1000 : 0"
       inkscape:vp_z="301 : 143.93898 : 1"
       inkscape:persp3d-origin="150.5 : 95.95932 : 1"
       id="perspective59" />
  </defs>
  <metadata
     id="metadata7">
    <rdf:RDF>
      <cc:Work
         rdf:about="">
        <dc:format>image/svg+xml</dc:format>
        <dc:type
           rdf:resource="http://purl.org/dc/dcmitype/StillImage" />
        <dc:title></dc:title>
      </cc:Work>
    </rdf:RDF>
  </metadata>
  <g
     inkscape:label="Layer 1"
     inkscape:groupmode="layer"
     id="layer1"
     transform="translate(-171.94069,-274.29075)" />
  <g
     id="g3216"
     inkscape:export-filename="/home/jerry/working/lcMeter/wiki/logo.png"
     inkscape:export-xdpi="22.43"
     inkscape:export-ydpi="22.43">
    <rect
       ry="14.349733"
       rx="20.007782"
       y="0.44164136"
       x="0.44163421"
       height="286.99469"
       width="300.11673"
       id="rect2842"
       style="fill:#483e37;fill-opacity:1;fill-rule:nonzero;stroke:#000000;stroke-width:0.88327813;stroke-opacity:1;enable-background:new" />
    <rect
       ry="10"
       rx="10"
       y="127.1068"
       x="50.5"
       height="115"
       width="200"
       id="rect2844"
       style="fill:#cccccc;fill-opacity:1;fill-rule:nonzero;stroke:#000000;stroke-opacity:1;enable-background:new" />
    <rect
       ry="2"
       rx="2"
       style="fill:#ffeeaa;fill-opacity:1;fill-rule:nonzero;stroke:#000000;stroke-opacity:1;enable-background:new"
       id="rect2869"
       width="183.73654"
       height="102.27208"
       x="58.631729"
       y="130.9958" />
    <text
       sodipodi:linespacing="125%"
       id="text3193"
       y="186.51329"
       x="127.16657"
       style="font-size:20px;font-style:normal;font-weight:normal;line-height:125%;letter-spacing:0px;word-spacing:0px;fill:#000000;fill-opacity:1;stroke:none;font-family:Times New Roman;-inkscape-font-specification:Times New Roman"
       xml:space="preserve"><tspan
         style="font-size:32px"
         y="186.51329"
         x="127.16657"
         id="tspan3195"
         sodipodi:role="line">L/C</tspan></text>
    <path
       id="path4349"
       d="m 226.3125,183.39276 -3.0938,-5 c -0.2666,-0.42998 -0.4006,-0.90001 -0.625,-1.34375 -16.5234,12.20883 -42.639,19.84375 -72.0937,19.84375 -29.4547,0 -55.539,-7.63492 -72.0625,-19.84375 -0.2254,0.44623 -0.3882,0.91142 -0.6562,1.34375 l -3.0938,5 c 18.2382,12.56251 45.4126,20.5625 75.8125,20.5625 30.3897,0 57.5744,-8.00728 75.8125,-20.5625 z"
       style="fill:#f2f2f2;stroke:#000000;stroke-width:0.97763485;stroke-miterlimit:4;stroke-opacity:1;stroke-dasharray:none;enable-background:new"
       inkscape:connector-curvature="0" />
    <path
       inkscape:transform-center-x="-19.10225"
       inkscape:transform-center-y="65.229968"
       d="m 179.32182,210.13133 -2.10306,-3.6434 c 0.73873,0.46937 1.28591,0.29946 1.64192,-0.5084 l 0.46113,4.15176 1e-5,4e-5 z m -20.01903,-62.23484 17.00664,55.01254 c 0.71586,2.12069 0.85209,2.84009 -0.63793,2.0081 3.62282,4.96618 4.18641,7.2613 4.59883,8.43401 -0.23569,-1.21205 -1.12355,-3.79932 -1.10239,-9.61222 -0.77589,1.92852 -1.28454,0.85495 -1.90059,-1.11693 l -16.04872,-55.29959 -1.91584,0.57409 z"
       style="fill:#000000;stroke-width:1px;enable-background:new"
       id="path4359"
       inkscape:connector-curvature="0" />
    <path
       sodipodi:nodetypes="cccccc"
       id="path2864"
       d="M 150.33956,80.053 C 134.54154,79.94185 37.59395,86.72279 40.24505,116.70925 l 0,32.28125 220.56326,0 0,-35 c 0,-18.7355 -49.48936,-33.9375 -110.46875,-33.9375 z"
       style="fill:#666666;fill-opacity:1;fill-rule:nonzero;stroke:#000000;stroke-opacity:1;enable-background:new"
       inkscape:connector-curvature="0" />
    <path
       id="path2875"
       d="m 231.16473,203.28338 c 0,0 -3.52276,-6.92094 -3.52276,-6.92094 0,0 -4.38394,-6.41017 -4.38394,-6.41017 0,0 3.52276,6.92094 3.52276,6.92094 0,0 4.38394,6.41017 4.38394,6.41017 0,0 0,0 0,0 m -15.20543,7.60176 c 0,0 -2.611,-7.31389 -2.611,-7.31389 0,0 -3.53033,-6.91717 -3.53033,-6.91717 0,0 2.61101,7.3139 2.61101,7.3139 0,0 3.53032,6.91716 3.53032,6.91716 0,0 0,0 0,0 m -15.85863,5.78466 c 0,0 -1.77672,-7.56002 -1.77672,-7.56002 0,0 -2.73464,-7.2686 -2.73464,-7.2686 0,0 1.77672,7.56003 1.77672,7.56003 0,0 2.73464,7.26859 2.73464,7.26859 0,0 0,0 0,0 m -16.16919,4.10793 c 0,0 -1.11795,-7.68512 -1.11795,-7.68512 0,0 -2.09744,-7.47741 -2.09744,-7.47741 0,0 1.11595,7.67521 1.11595,7.67521 0,0 2.09944,7.48732 2.09944,7.48732 0,0 0,0 0,0 m -16.64473,2.50561 c 0,0 -0.30146,-7.76016 -0.30146,-7.76016 0,0 -1.29739,-7.65688 -1.29739,-7.65688 0,0 0.30146,7.76016 0.30146,7.76016 0,0 1.29739,7.65688 1.29739,7.65688 0,0 0,0 0,0 m -16.79989,0.8881 c 0,0 0.50969,-7.74927 0.50969,-7.74927 0,0 -0.49161,-7.75043 -0.49161,-7.75043 0,0 -0.50967,7.74926 -0.50967,7.74926 0,0 0.49159,7.75044 0.49159,7.75044 0,0 0,0 0,0 m -16.648,-0.72689 c 0,0 1.15708,-7.67933 1.15708,-7.67933 0,0 0.15942,-7.76438 0.15942,-7.76438 0,0 -1.15708,7.67933 -1.15708,7.67933 0,0 -0.15942,7.76438 -0.15942,7.76438 0,0 0,0 0,0 m -16.67061,-2.37359 c 0,0 1.96701,-7.51277 1.96701,-7.51277 0,0 0.98404,-7.70341 0.98404,-7.70341 0,0 -1.96701,7.51278 -1.96701,7.51278 0,0 -0.98404,7.7034 -0.98404,7.7034 0,0 0,0 0,0 m -16.37562,-4.02825 c 0,0 2.77948,-7.2554 2.77948,-7.2554 0,0 1.82127,-7.54572 1.82127,-7.54572 0,0 -2.77846,7.25195 -2.77846,7.25195 0,0 -1.82229,7.54917 -1.82229,7.54917 0,0 0,0 0,0 m -15.74564,-5.69189 c 0,0 3.44925,-6.95793 3.44925,-6.95793 0,0 2.52536,-7.34388 2.52536,-7.34388 0,0 -3.44805,6.95515 -3.44805,6.95515 0,0 -2.52656,7.34666 -2.52656,7.34666 0,0 0,0 0,0 m -15.38043,-7.9217 c 0,0 4.56087,-6.28842 4.56087,-6.28842 0,0 3.71161,-6.8187 3.71161,-6.8187 0,0 -4.55959,6.28636 -4.55959,6.28636 0,0 -3.71289,6.82076 -3.71289,6.82076 0,0 0,0 0,0"
       style="font-size:medium;font-style:normal;font-variant:normal;font-weight:normal;font-stretch:normal;text-indent:0;text-align:start;text-decoration:none;line-height:normal;letter-spacing:normal;word-spacing:normal;text-transform:none;direction:ltr;block-progression:tb;writing-mode:lr-tb;text-anchor:start;color:#000000;fill:#666666;fill-opacity:1;fill-rule:nonzero;stroke:none;stroke-width:1px;marker:none;visibility:visible;display:inline;overflow:visible;enable-background:accumulate;font-family:Bitstream Vera Sans;-inkscape-font-specification:Bitstream Vera Sans"
       sodipodi:nodetypes="cccccccccccccccccccccccccccccccccccccccccccccccccccccccccccccccccc"
       inkscape:connector-curvature="0" />
    <path
       sodipodi:nodetypes="cccccccccccccccccccccccccccccccccccccccccccccccccccccccccccccccccccccccccccccccccccccccccccccccccccccccccccccccccccccccccccccccccccccccccccccccccccccccccccccccccccccccccccccccccccccccccccccccccccccccccccccccccccccccccccccccccccccccccccccccccccccccccccccccccccccccccccccccccccccccccccccccccccccccccccccccccccccccccccccccccccccccccc"
       id="path8138"
       d="m 223.50613,194.93094 c 0,0 1.80226,3.43036 1.80226,3.43036 0,0 2.23294,3.17134 2.23294,3.17134 0,0 -1.80227,-3.43037 -1.80227,-3.43037 0,0 -2.23293,-3.17133 -2.23293,-3.17133 0,0 0,0 0,0 m -2.05602,1.15604 c 0,0 1.65926,3.50067 1.65926,3.50067 0,0 2.10027,3.25934 2.10027,3.25934 0,0 -1.65926,-3.50067 -1.65926,-3.50067 0,0 -2.10027,-3.25934 -2.10027,-3.25934 0,0 0,0 0,0 m -2.22117,1.1873 c 0,0 1.65926,3.50066 1.65926,3.50066 0,0 2.10027,3.25935 2.10027,3.25935 0,0 -1.65926,-3.50067 -1.65926,-3.50067 0,0 -2.10027,-3.25934 -2.10027,-3.25934 0,0 0,0 0,0 m -2.11617,1.0573 c 0,0 1.519,3.5628 1.519,3.5628 0,0 1.96924,3.33889 1.96924,3.33889 0,0 -1.51899,-3.5628 -1.51899,-3.5628 0,0 -1.96925,-3.33889 -1.96925,-3.33889 0,0 0,0 0,0 m -2.26659,1.09961 c 0,0 1.519,3.56281 1.519,3.56281 0,0 1.96923,3.33887 1.96923,3.33887 0,0 -1.51899,-3.5628 -1.51899,-3.5628 0,0 -1.96924,-3.33888 -1.96924,-3.33888 0,0 0,0 0,0 m -2.1675,0.96294 c 0,0 1.38133,3.61755 1.38133,3.61755 0,0 1.83984,3.41077 1.83984,3.41077 0,0 -1.38135,-3.61754 -1.38135,-3.61754 0,0 -1.83982,-3.41078 -1.83982,-3.41078 0,0 0,0 0,0 m -4.25431,1.48762 c 0,0 1.2461,3.66556 1.2461,3.66556 0,0 1.71197,3.47568 1.71197,3.47568 0,0 -1.2461,-3.66556 -1.2461,-3.66556 0,0 -1.71197,-3.47568 -1.71197,-3.47568 0,0 0,0 0,0 m -2.21643,0.87029 c 0,0 1.11309,3.70747 1.11309,3.70747 0,0 1.5855,3.53422 1.5855,3.53422 0,0 -1.11336,-3.70794 -1.11336,-3.70794 0,0 -1.58523,-3.53375 -1.58523,-3.53375 0,0 0,0 0,0 m -2.37515,0.84462 c 0,0 1.11309,3.70746 1.11309,3.70746 0,0 1.58551,3.53423 1.58551,3.53423 0,0 -1.1131,-3.70747 -1.1131,-3.70747 0,0 -1.5855,-3.53422 -1.5855,-3.53422 0,0 0,0 0,0 m -2.25166,0.78666 c 0,0 0.9821,3.74372 0.9821,3.74372 0,0 1.46031,3.58694 1.46031,3.58694 0,0 -0.98209,-3.74372 -0.98209,-3.74372 0,0 -1.46032,-3.58694 -1.46032,-3.58694 0,0 0,0 0,0 m -2.4034,0.76195 c 0,0 0.98209,3.74373 0.98209,3.74373 0,0 1.46032,3.58693 1.46032,3.58693 0,0 -0.9821,-3.74373 -0.9821,-3.74373 0,0 -1.46031,-3.58693 -1.46031,-3.58693 0,0 0,0 0,0 m -5.41671,1.47722 c 0,0 0.85289,3.77478 0.85289,3.77478 0,0 1.33622,3.63424 1.33622,3.63424 0,0 -0.85289,-3.77477 -0.85289,-3.77477 0,0 -1.33622,-3.63425 -1.33622,-3.63425 0,0 0,0 0,0 m -2.30707,0.62984 c 0,0 0.72524,3.80095 0.72524,3.80095 0,0 1.21303,3.67652 1.21303,3.67652 0,0 -0.72523,-3.80095 -0.72523,-3.80095 0,0 -1.21304,-3.67652 -1.21304,-3.67652 0,0 0,0 0,0 m -2.44974,0.59937 c 0,0 0.72523,3.80094 0.72523,3.80094 0,0 1.21302,3.67652 1.21302,3.67652 0,0 -0.72523,-3.80094 -0.72523,-3.80094 0,0 -1.21302,-3.67652 -1.21302,-3.67652 0,0 0,0 0,0 m -2.32851,0.55619 c 0,0 0.59892,3.82255 0.59892,3.82255 0,0 1.09057,3.71409 1.09057,3.71409 0,0 -0.59892,-3.82255 -0.59892,-3.82255 0,0 -1.09057,-3.71409 -1.09057,-3.71409 0,0 0,0 0,0 m -2.46828,0.51918 c 0,0 0.59892,3.82255 0.59892,3.82255 0,0 1.09057,3.71409 1.09057,3.71409 0,0 -0.59892,-3.82255 -0.59892,-3.82255 0,0 -1.09057,-3.71409 -1.09057,-3.71409 0,0 0,0 0,0 m -4.12351,0.83466 c 0,0 0.47373,3.8398 0.47373,3.8398 0,0 0.96867,3.7472 0.96867,3.7472 0,0 -0.47373,-3.83981 -0.47373,-3.83981 0,0 -0.96867,-3.74719 -0.96867,-3.74719 0,0 0,0 0,0 m -2.36127,0.41746 c 0,0 0.34951,3.85289 0.34951,3.85289 0,0 0.97023,3.75623 0.97023,3.75623 0,0 -0.47375,-3.8398 -0.47375,-3.8398 0,0 -0.84599,-3.76932 -0.84599,-3.76932 0,0 0,0 0,0 m -2.49685,0.36042 c 0,0 0.3495,3.85289 0.3495,3.85289 0,0 0.84716,3.77607 0.84716,3.77607 0,0 -0.34949,-3.85289 -0.34949,-3.85289 0,0 -0.84717,-3.77607 -0.84717,-3.77607 0,0 0,0 0,0 m -2.49686,0.36042 c 0,0 0.34948,3.85289 0.34948,3.85289 0,0 0.84719,3.77607 0.84719,3.77607 0,0 -0.3495,-3.85289 -0.3495,-3.85289 0,0 -0.84717,-3.77607 -0.84717,-3.77607 0,0 0,0 0,0 m -2.38364,0.27324 c 0,0 0.22602,3.86197 0.22602,3.86197 0,0 0.72588,3.80086 0.72588,3.80086 0,0 -0.22601,-3.86197 -0.22601,-3.86197 0,0 -0.72589,-3.80086 -0.72589,-3.80086 0,0 0,0 0,0 m -2.50713,0.28161 c 0,0 0.226,3.86197 0.226,3.86197 0,0 0.7259,3.80085 0.7259,3.80085 0,0 -0.22602,-3.86196 -0.22602,-3.86196 0,0 -0.72588,-3.80086 -0.72588,-3.80086 0,0 0,0 0,0 m -4.90563,0.41358 c 0,0 0.10305,3.86712 0.10305,3.86712 0,0 0.60469,3.82169 0.60469,3.82169 0,0 -0.10305,-3.86712 -0.10305,-3.86712 0,0 -0.60469,-3.82169 -0.60469,-3.82169 0,0 0,0 0,0 m -2.39587,0.1501 c 0,0 -0.019,3.86845 -0.019,3.86845 0,0 0.48342,3.83863 0.48342,3.83863 0,0 0.019,-3.86842 0.019,-3.86842 0,0 -0.48341,-3.83865 -0.48341,-3.83865 0,0 0,0 0,0 m -2.52003,0.1246 c 0,0 -0.019,3.86844 -0.019,3.86844 0,0 0.48342,3.83864 0.48342,3.83864 0,0 0.019,-3.86844 0.019,-3.86844 0,0 -0.48342,-3.83864 -0.48342,-3.83864 0,0 0,0 0,0 m -2.39916,0.0919 c 0,0 -0.1415,3.86594 -0.1415,3.86594 0,0 0.36198,3.85179 0.36198,3.85179 0,0 0.14148,-3.86594 0.14148,-3.86594 0,0 -0.36196,-3.85179 -0.36196,-3.85179 0,0 0,0 0,0 m -2.52273,0.0462 c 0,0 -0.14149,3.86595 -0.14149,3.86595 0,0 0.36198,3.85179 0.36198,3.85179 0,0 0.14149,-3.86595 0.14149,-3.86595 0,0 -0.36198,-3.85179 -0.36198,-3.85179 0,0 0,0 0,0 m -4.9241,0.004 c 0,0 -0.26317,3.85967 -0.26317,3.85967 0,0 0.2405,3.86113 0.2405,3.86113 0,0 0.26316,-3.85968 0.26316,-3.85968 0,0 -0.24049,-3.86112 -0.24049,-3.86112 0,0 0,0 0,0 m -2.52295,-0.032 c 0,0 -0.26316,3.85968 -0.26316,3.85968 0,0 0.24049,3.86113 0.24049,3.86113 0,0 0.26317,-3.85968 0.26317,-3.85968 0,0 -0.2405,-3.86113 -0.2405,-3.86113 0,0 0,0 0,0 m -2.39906,-0.0986 c 0,0 -0.38491,3.84961 -0.38491,3.84961 0,0 0.11845,3.86671 0.11845,3.86671 0,0 0.38491,-3.84961 0.38491,-3.84961 0,0 -0.11845,-3.86671 -0.11845,-3.86671 0,0 0,0 0,0 m -2.5207,-0.11035 c 0,0 -0.3849,3.8496 -0.3849,3.8496 0,0 0.11845,3.86671 0.11845,3.86671 0,0 0.38491,-3.84961 0.38491,-3.84961 0,0 -0.11846,-3.8667 -0.11846,-3.8667 0,0 0,0 0,0 m -2.39545,-0.15682 c 0,0 -0.50657,3.83573 -0.50657,3.83573 0,0 -0.004,3.8685 -0.004,3.8685 0,0 0.50657,-3.83574 0.50657,-3.83574 0,0 0.004,-3.86849 0.004,-3.86849 0,0 0,0 0,0 m -2.51595,-0.18879 c 0,0 -0.50658,3.83573 -0.50658,3.83573 0,0 -0.004,3.86849 -0.004,3.86849 0,0 0.50656,-3.83572 0.50656,-3.83572 0,0 0.004,-3.8685 0.004,-3.8685 0,0 0,0 0,0 m -2.39007,-0.21731 c 0,0 -0.62827,3.81798 -0.62827,3.81798 0,0 -0.12698,3.86644 -0.12698,3.86644 0,0 0.62827,-3.81798 0.62827,-3.81798 0,0 0.12698,-3.86644 0.12698,-3.86644 0,0 0,0 0,0 m -2.50868,-0.26742 c 0,0 -0.62827,3.81798 -0.62827,3.81798 0,0 -0.12698,3.86645 -0.12698,3.86645 0,0 0.62826,-3.81798 0.62826,-3.81798 0,0 0.12699,-3.86645 0.12699,-3.86645 0,0 0,0 0,0 m -2.3826,-0.28012 c 0,0 -0.75016,3.79627 -0.75016,3.79627 0,0 -0.25066,3.86051 -0.25066,3.86051 0,0 0.75014,-3.79627 0.75014,-3.79627 0,0 0.25068,-3.86051 0.25068,-3.86051 0,0 0,0 0,0 m -2.49887,-0.34628 c 0,0 -0.75014,3.79626 -0.75014,3.79626 0,0 -0.25067,3.86051 -0.25067,3.86051 0,0 0.75013,-3.79626 0.75013,-3.79626 0,0 0.25068,-3.86051 0.25068,-3.86051 0,0 0,0 0,0 m -2.37282,-0.34532 c 0,0 -0.87236,3.77048 -0.87236,3.77048 0,0 -0.37522,3.85056 -0.37522,3.85056 0,0 0.87236,-3.77048 0.87236,-3.77048 0,0 0.37522,-3.85056 0.37522,-3.85056 0,0 0,0 0,0 m -2.4864,-0.42552 c 0,0 -0.87234,3.77048 -0.87234,3.77048 0,0 -0.37521,3.85056 -0.37521,3.85056 0,0 0.87234,-3.77048 0.87234,-3.77048 0,0 0.37521,-3.85056 0.37521,-3.85056 0,0 0,0 0,0 m -4.83159,-0.91827 c 0,0 -0.99505,3.74047 -0.99505,3.74047 0,0 -0.50081,3.83648 -0.50081,3.83648 0,0 0.99506,-3.74045 0.99506,-3.74045 0,0 0.5008,-3.8365 0.5008,-3.8365 0,0 0,0 0,0 m -2.34504,-0.48344 c 0,0 -1.11842,3.70601 -1.11842,3.70601 0,0 -0.62762,3.81808 -0.62762,3.81808 0,0 1.11911,-3.70937 1.11911,-3.70937 0,0 0.62693,-3.81472 0.62693,-3.81472 0,0 0,0 0,0 m -2.4531,-0.5855 c 0,0 -1.11842,3.70601 -1.11842,3.70601 0,0 -0.62761,3.81808 -0.62761,3.81808 0,0 1.11842,-3.70599 1.11842,-3.70599 0,0 0.62761,-3.8181 0.62761,-3.8181 0,0 0,0 0,0 m -2.32625,-0.55668 c 0,0 -1.24267,3.66686 -1.24267,3.66686 0,0 -0.7559,3.79514 -0.7559,3.79514 0,0 1.24411,-3.67273 1.24411,-3.67273 0,0 0.75446,-3.78927 0.75446,-3.78927 0,0 0,0 0,0 m -2.432,-0.6665 c 0,0 -1.24266,3.66687 -1.24266,3.66687 0,0 -0.7559,3.79514 -0.7559,3.79514 0,0 1.24265,-3.66686 1.24265,-3.66686 0,0 0.75591,-3.79515 0.75591,-3.79515 0,0 0,0 0,0 m -4.71135,-1.38128 c 0,0 -1.36793,3.62271 -1.36793,3.62271 0,0 -0.88585,3.76737 -0.88585,3.76737 0,0 1.36793,-3.62271 1.36793,-3.62271 0,0 0.88585,-3.76737 0.88585,-3.76737 0,0 0,0 0,0 m -2.27667,-0.71247 c 0,0 -1.49445,3.57318 -1.49445,3.57318 0,0 -1.01774,3.73445 -1.01774,3.73445 0,0 1.49533,-3.57613 1.49533,-3.57613 0,0 1.01686,-3.7315 1.01686,-3.7315 0,0 0,0 0,0 m -2.37989,-0.83116 c 0,0 -1.49444,3.57319 -1.49444,3.57319 0,0 -1.01774,3.73444 -1.01774,3.73444 0,0 1.49442,-3.5732 1.49442,-3.5732 0,0 1.01776,-3.73443 1.01776,-3.73443 0,0 0,0 0,0 m -2.2447,-0.79548 c 0,0 -1.62236,3.51785 -1.62236,3.51785 0,0 -1.15178,3.69592 -1.15178,3.69592 0,0 1.62235,-3.51784 1.62235,-3.51784 0,0 1.15179,-3.69593 1.15179,-3.69593 0,0 0,0 0,0 m -2.34839,-0.91509 c 0,0 -1.62235,3.51786 -1.62235,3.51786 0,0 -1.15178,3.69592 -1.15178,3.69592 0,0 1.62235,-3.51786 1.62235,-3.51786 0,0 1.15178,-3.69592 1.15178,-3.69592 0,0 0,0 0,0 m -2.20695,-0.88224 c 0,0 -1.75185,3.4562 -1.75185,3.4562 0,0 -1.2882,3.65133 -1.2882,3.65133 0,0 1.75184,-3.45619 1.75184,-3.45619 0,0 1.28821,-3.65134 1.28821,-3.65134 0,0 0,0 0,0 m -4.4754,-1.97326 c 0,0 -1.88304,3.38762 -1.88304,3.38762 0,0 -1.42723,3.60009 -1.42723,3.60009 0,0 1.88304,-3.38762 1.88304,-3.38762 0,0 1.42723,-3.60009 1.42723,-3.60009 0,0 0,0 0,0 m -2.27278,-1.08677 c 0,0 -1.88304,3.38762 -1.88304,3.38762 0,0 -1.42722,3.6001 -1.42722,3.6001 0,0 1.88304,-3.38761 1.88304,-3.38761 0,0 1.42722,-3.60011 1.42722,-3.60011 0,0 0,0 0,0 m -2.11051,-1.068 c 0,0 -2.01607,3.3114 -2.01607,3.3114 0,0 -1.56904,3.54154 -1.56904,3.54154 0,0 2.01606,-3.31141 2.01606,-3.31141 0,0 1.56905,-3.54153 1.56905,-3.54153 0,0 0,0 0,0 m -2.22787,-1.17472 c 0,0 -2.01605,3.3114 -2.01605,3.3114 0,0 -1.56903,3.54154 -1.56903,3.54154 0,0 2.01605,-3.31141 2.01605,-3.31141 0,0 1.56903,-3.54153 1.56903,-3.54153 0,0 0,0 0,0 m -2.04951,-1.16748 c 0,0 -2.15095,3.22679 -2.15095,3.22679 0,0 -1.7138,3.47487 -1.7138,3.47487 0,0 2.15096,-3.22678 2.15096,-3.22678 0,0 1.71379,-3.47488 1.71379,-3.47488 0,0 0,0 0,0"
       style="font-size:medium;font-style:normal;font-variant:normal;font-weight:normal;font-stretch:normal;text-indent:0;text-align:start;text-decoration:none;line-height:normal;letter-spacing:normal;word-spacing:normal;text-transform:none;direction:ltr;block-progression:tb;writing-mode:lr-tb;text-anchor:start;color:#000000;fill:#666666;fill-opacity:1;fill-rule:nonzero;stroke:none;stroke-width:1px;marker:none;visibility:visible;display:inline;overflow:visible;enable-background:accumulate;font-family:Bitstream Vera Sans;-inkscape-font-specification:Bitstream Vera Sans"
       inkscape:connector-curvature="0" />
    <path
       id="path4304"
       d="M 20.52494,183.94049"
       style="stroke-width:1px;enable-background:new"
       inkscape:connector-curvature="0" />
    <text
       sodipodi:linespacing="125%"
       id="text5210"
       y="154.44844"
       x="61.60112"
       style="font-size:4.03633261px;font-style:italic;font-variant:normal;font-weight:bold;font-stretch:normal;line-height:125%;fill:#000000;fill-opacity:1;stroke:none;enable-background:new;font-family:URW Chancery L;-inkscape-font-specification:URW Chancery L Bold Italic"
       xml:space="preserve"><tspan
         style="font-size:4.03633261px;font-style:normal;font-variant:normal;font-weight:normal;font-stretch:normal;text-align:start;line-height:125%;writing-mode:lr-tb;text-anchor:start;font-family:URW Bookman L;-inkscape-font-specification:URW Bookman L"
         y="154.44844"
         x="61.60112"
         id="tspan5212"
         sodipodi:role="line">2011-05-16</tspan></text>
    <g
       style="fill:#4d4d4d;enable-background:new"
       transform="translate(-171.94069,-275.19883)"
       id="g5318">
      <g
         id="text5214"
         style="font-size:7.59421015px;font-style:normal;font-variant:normal;font-weight:normal;font-stretch:normal;text-align:start;line-height:125%;writing-mode:lr-tb;text-anchor:start;fill:#4d4d4d;fill-opacity:1;stroke:none;font-family:URW Bookman L;-inkscape-font-specification:URW Bookman L"
         transform="matrix(0.8660254,0.5,-0.5,0.8660254,0.5350928,0.42807424)">
        <path
           style="fill:#4d4d4d"
           id="path5356"
           d="m 447.73798,296.10639 c -0.50121,0 -1.00243,0.21264 -1.32898,0.56956 -0.44806,0.48603 -0.73664,1.30621 -0.73664,2.09601 0,1.60237 0.84296,2.70353 2.06562,2.70353 1.22267,0 2.08082,-1.09356 2.08082,-2.65037 0,-1.61757 -0.84296,-2.71873 -2.08082,-2.71873 m 0.0304,0.36452 c 0.32655,0 0.62273,0.15188 0.82777,0.44046 0.2582,0.34174 0.40249,1.03282 0.40249,1.86059 0,0.62272 -0.0835,1.19229 -0.24301,1.59478 -0.16707,0.44806 -0.56957,0.74423 -1.00244,0.74423 -0.48603,0 -0.90371,-0.34174 -1.07837,-0.88852 -0.12151,-0.3873 -0.18227,-0.85815 -0.18227,-1.36696 0,-0.56956 0.12151,-1.26064 0.28858,-1.68591 0.17467,-0.43287 0.54679,-0.69867 0.98725,-0.69867"
           inkscape:connector-curvature="0" />
      </g>
      <g
         id="text5230"
         style="font-size:7.59421015px;font-style:normal;font-variant:normal;font-weight:normal;font-stretch:normal;text-align:start;line-height:125%;writing-mode:lr-tb;text-anchor:start;fill:#4d4d4d;fill-opacity:1;stroke:none;font-family:URW Bookman L;-inkscape-font-specification:URW Bookman L"
         transform="matrix(0.91827916,0.39593355,-0.39593355,0.91827916,0,0)">
        <path
           style="fill:#4d4d4d"
           id="path5359"
           d="m 430.0497,346.85936 -0.28858,0 c -0.1367,0.23542 -0.22783,0.2734 -0.61513,0.2734 l -2.29346,0 0,2.72632 0.32656,0.0759 c 0.37971,-0.524 0.67588,-0.69867 1.19229,-0.69867 0.80498,0 1.3062,0.53919 1.3062,1.38974 0,0.87334 -0.54678,1.43531 -1.38974,1.43531 -0.49362,0 -0.90371,-0.21264 -0.90371,-0.47084 l 0.008,-0.0835 c 0.0683,-0.22023 0.0683,-0.22023 0.0683,-0.28098 0,-0.22783 -0.20504,-0.42528 -0.44046,-0.42528 -0.25821,0 -0.46325,0.22023 -0.46325,0.48603 0,0.63032 0.80499,1.11635 1.8378,1.11635 1.26823,0 2.14157,-0.77461 2.14157,-1.89096 0,-1.01762 -0.78221,-1.71629 -1.91374,-1.71629 -0.50882,0 -0.85056,0.12151 -1.29861,0.47843 l 0,-1.51884 2.59722,0 0.1291,-0.89612"
           inkscape:connector-curvature="0" />
      </g>
      <g
         id="text5234"
         style="font-size:7.59421015px;font-style:normal;font-variant:normal;font-weight:normal;font-stretch:normal;text-align:start;line-height:125%;writing-mode:lr-tb;text-anchor:start;fill:#4d4d4d;fill-opacity:1;stroke:none;font-family:URW Bookman L;-inkscape-font-specification:URW Bookman L"
         transform="matrix(0.96387305,0.26636206,-0.26636206,0.96387305,0,0)">
        <path
           style="fill:#4d4d4d"
           id="path5362"
           d="m 391.79425,403.41977 -0.24301,0 c -0.49363,0.11392 -0.65311,0.14429 -1.41253,0.23542 l 0,0.22783 0.30377,0.0152 c 0.55438,0.0228 0.63032,0.11391 0.63032,0.71385 l 0,2.90859 c 0,0.41008 -0.0228,0.53159 -0.0987,0.60753 -0.12151,0.12151 -0.34934,0.20505 -0.59235,0.22024 l -0.25061,0.0152 0,0.22783 2.58963,0 0,-0.22783 -0.24302,-0.0152 c -0.57716,-0.038 -0.68348,-0.15948 -0.68348,-0.81258 l 0,-4.11607"
           inkscape:connector-curvature="0" />
        <path
           style="fill:#4d4d4d"
           id="path5364"
           d="m 395.98732,403.32105 c -0.50121,0 -1.00243,0.21264 -1.32898,0.56956 -0.44806,0.48603 -0.73664,1.30621 -0.73664,2.09601 0,1.60237 0.84296,2.70354 2.06562,2.70354 1.22267,0 2.08082,-1.09357 2.08082,-2.65038 0,-1.61757 -0.84296,-2.71873 -2.08082,-2.71873 m 0.0304,0.36452 c 0.32655,0 0.62273,0.15189 0.82777,0.44047 0.2582,0.34173 0.40249,1.03281 0.40249,1.86058 0,0.62272 -0.0835,1.19229 -0.24301,1.59478 -0.16707,0.44806 -0.56957,0.74423 -1.00244,0.74423 -0.48603,0 -0.90371,-0.34174 -1.07838,-0.88852 -0.1215,-0.3873 -0.18226,-0.85815 -0.18226,-1.36696 0,-0.56956 0.12151,-1.26064 0.28858,-1.68591 0.17467,-0.43287 0.54679,-0.69867 0.98725,-0.69867"
           inkscape:connector-curvature="0" />
      </g>
      <g
         id="text5252"
         style="font-size:7.59421015px;font-style:normal;font-variant:normal;font-weight:normal;font-stretch:normal;text-align:start;line-height:125%;writing-mode:lr-tb;text-anchor:start;fill:#4d4d4d;fill-opacity:1;stroke:none;font-family:URW Bookman L;-inkscape-font-specification:URW Bookman L"
         transform="matrix(0.9845485,0.17511213,-0.17511213,0.9845485,0,0)">
        <path
           style="fill:#4d4d4d"
           id="path5367"
           d="m 369.26245,439.28336 -0.24301,0 c -0.49363,0.11391 -0.65311,0.14429 -1.41253,0.23542 l 0,0.22783 0.30377,0.0152 c 0.55438,0.0228 0.63032,0.11391 0.63032,0.71385 l 0,2.90858 c 0,0.41009 -0.0228,0.5316 -0.0987,0.60754 -0.12151,0.12151 -0.34934,0.20504 -0.59235,0.22023 l -0.25061,0.0152 0,0.22783 2.58963,0 0,-0.22783 -0.24302,-0.0152 c -0.57716,-0.038 -0.68348,-0.15948 -0.68348,-0.81258 l 0,-4.11606"
           inkscape:connector-curvature="0" />
        <path
           style="fill:#4d4d4d"
           id="path5369"
           d="m 375.03512,439.00997 -0.28858,0 c -0.1367,0.23542 -0.22783,0.27339 -0.61513,0.27339 l -2.29345,0 0,2.72632 0.32655,0.0759 c 0.37971,-0.524 0.67588,-0.69866 1.19229,-0.69866 0.80498,0 1.3062,0.53919 1.3062,1.38974 0,0.87333 -0.54678,1.4353 -1.38974,1.4353 -0.49362,0 -0.90371,-0.21264 -0.90371,-0.47084 l 0.008,-0.0835 c 0.0683,-0.22024 0.0683,-0.22024 0.0683,-0.28099 0,-0.22783 -0.20504,-0.42528 -0.44046,-0.42528 -0.2582,0 -0.46325,0.22024 -0.46325,0.48603 0,0.63032 0.80499,1.11635 1.8378,1.11635 1.26823,0 2.14157,-0.77461 2.14157,-1.89096 0,-1.01762 -0.78221,-1.71629 -1.91374,-1.71629 -0.50881,0 -0.85055,0.12151 -1.29861,0.47844 l 0,-1.51884 2.59722,0 0.1291,-0.89612"
           inkscape:connector-curvature="0" />
      </g>
      <g
         id="text5258"
         style="font-size:7.59421015px;font-style:normal;font-variant:normal;font-weight:normal;font-stretch:normal;text-align:start;line-height:125%;writing-mode:lr-tb;text-anchor:start;fill:#4d4d4d;fill-opacity:1;stroke:none;font-family:URW Bookman L;-inkscape-font-specification:URW Bookman L"
         transform="matrix(0.99704795,0.07678147,-0.07678147,0.99704795,0,0)">
        <path
           style="fill:#4d4d4d"
           id="path5372"
           d="m 342.74087,478.50435 -0.28858,-0.0759 -0.0759,0.17467 c -0.2582,0.59234 -0.43287,0.69866 -1.12394,0.69866 l -1.72389,0 c 0.90371,-0.56956 1.1847,-0.76701 1.55681,-1.07837 0.88853,-0.74424 1.32899,-1.4429 1.32899,-2.08841 0,-0.86574 -0.77461,-1.48087 -1.86817,-1.48087 -0.99484,0 -1.83021,0.6531 -1.83021,1.42771 0,0.36452 0.22783,0.63791 0.51641,0.63791 0.22782,0 0.43287,-0.19745 0.43287,-0.41009 0,-0.0759 -0.038,-0.17466 -0.0911,-0.24301 -0.1367,-0.16707 -0.15948,-0.22023 -0.15948,-0.34933 0,-0.36453 0.51641,-0.69867 1.07078,-0.69867 0.62273,0 1.03281,0.41009 1.03281,1.01003 0,0.57716 -0.28098,1.15432 -0.9113,1.86058 -0.50122,0.55438 -0.96447,0.9189 -1.92134,1.50365 l 0,0.5316 3.69079,0 0.36452,-1.42012"
           inkscape:connector-curvature="0" />
        <path
           style="fill:#4d4d4d"
           id="path5374"
           d="m 345.43789,474.65409 c -0.50122,0 -1.00244,0.21264 -1.32899,0.56956 -0.44806,0.48603 -0.73664,1.30621 -0.73664,2.096 0,1.60238 0.84296,2.70354 2.06563,2.70354 1.22266,0 2.08081,-1.09356 2.08081,-2.65038 0,-1.61756 -0.84296,-2.71872 -2.08081,-2.71872 m 0.0304,0.36452 c 0.32655,0 0.62273,0.15188 0.82777,0.44046 0.2582,0.34174 0.40249,1.03282 0.40249,1.86058 0,0.62273 -0.0835,1.1923 -0.24301,1.59479 -0.16707,0.44806 -0.56957,0.74423 -1.00244,0.74423 -0.48603,0 -0.90371,-0.34174 -1.07837,-0.88852 -0.12151,-0.38731 -0.18227,-0.85815 -0.18227,-1.36696 0,-0.56956 0.12151,-1.26064 0.28858,-1.68591 0.17467,-0.43287 0.54679,-0.69867 0.98725,-0.69867"
           inkscape:connector-curvature="0" />
      </g>
      <g
         id="text5266"
         style="font-size:7.59421015px;font-style:normal;font-variant:normal;font-weight:normal;font-stretch:normal;text-align:start;line-height:125%;writing-mode:lr-tb;text-anchor:start;fill:#4d4d4d;fill-opacity:1;stroke:none;font-family:URW Bookman L;-inkscape-font-specification:URW Bookman L"
         transform="matrix(0.99989653,-0.01438474,0.01438474,0.99989653,0,0)">
        <path
           style="fill:#4d4d4d"
           id="path5377"
           d="m 315.35992,508.72759 -0.28858,-0.0759 -0.0759,0.17466 c -0.2582,0.59235 -0.43287,0.69867 -1.12394,0.69867 l -1.72389,0 c 0.90371,-0.56957 1.1847,-0.76702 1.55681,-1.07838 0.88853,-0.74423 1.32899,-1.4429 1.32899,-2.08841 0,-0.86573 -0.77461,-1.48087 -1.86817,-1.48087 -0.99485,0 -1.83021,0.65311 -1.83021,1.42771 0,0.36453 0.22783,0.63792 0.51641,0.63792 0.22782,0 0.43287,-0.19745 0.43287,-0.41009 0,-0.0759 -0.038,-0.17467 -0.0911,-0.24301 -0.1367,-0.16708 -0.15948,-0.22024 -0.15948,-0.34934 0,-0.36452 0.5164,-0.69866 1.07078,-0.69866 0.62273,0 1.03281,0.41008 1.03281,1.01003 0,0.57715 -0.28098,1.15432 -0.9113,1.86058 -0.50122,0.55437 -0.96447,0.9189 -1.92134,1.50365 l 0,0.5316 3.69079,0 0.36452,-1.42012"
           inkscape:connector-curvature="0" />
        <path
           style="fill:#4d4d4d"
           id="path5379"
           d="m 319.63653,504.70266 -0.28858,0 c -0.1367,0.23542 -0.22783,0.27339 -0.61513,0.27339 l -2.29345,0 0,2.72632 0.32655,0.0759 c 0.37971,-0.524 0.67588,-0.69867 1.19229,-0.69867 0.80498,0 1.3062,0.53919 1.3062,1.38974 0,0.87334 -0.54678,1.43531 -1.38974,1.43531 -0.49362,0 -0.90371,-0.21264 -0.90371,-0.47084 l 0.008,-0.0835 c 0.0683,-0.22023 0.0683,-0.22023 0.0683,-0.28098 0,-0.22783 -0.20504,-0.42528 -0.44046,-0.42528 -0.2582,0 -0.46325,0.22023 -0.46325,0.48603 0,0.63032 0.80499,1.11635 1.8378,1.11635 1.26823,0 2.14157,-0.77461 2.14157,-1.89096 0,-1.01762 -0.78221,-1.71629 -1.91374,-1.71629 -0.50881,0 -0.85055,0.12151 -1.29861,0.47844 l 0,-1.51885 2.59722,0 0.1291,-0.89611"
           inkscape:connector-curvature="0" />
      </g>
      <g
         id="text5274"
         style="font-size:7.59421015px;font-style:normal;font-variant:normal;font-weight:normal;font-stretch:normal;text-align:start;line-height:125%;writing-mode:lr-tb;text-anchor:start;fill:#4d4d4d;fill-opacity:1;stroke:none;font-family:URW Bookman L;-inkscape-font-specification:URW Bookman L"
         transform="matrix(0.99593471,-0.09007799,0.09007799,0.99593471,0,0)">
        <path
           style="fill:#4d4d4d"
           id="path5382"
           d="m 291.0904,530.77831 c 0.31136,-0.0304 0.44046,-0.038 0.53159,-0.038 0.34174,0 0.70627,0.10632 0.91131,0.2658 0.24301,0.18986 0.3949,0.56197 0.3949,0.95687 0,0.77461 -0.48603,1.23026 -1.29861,1.23026 -0.33415,0 -0.62273,-0.0683 -0.83536,-0.20504 -0.14429,-0.0911 -0.25821,-0.2582 -0.25821,-0.37971 0,-0.0228 0.008,-0.0456 0.0152,-0.0835 0.0532,-0.16707 0.0532,-0.16707 0.0532,-0.2582 0,-0.24301 -0.17467,-0.42527 -0.42528,-0.42527 -0.2582,0 -0.46324,0.23542 -0.46324,0.524 0,0.28098 0.18226,0.56956 0.47843,0.7822 0.37971,0.2658 0.82777,0.3873 1.40493,0.3873 1.27583,0 2.18713,-0.66069 2.18713,-1.58719 0,-0.44805 -0.23542,-0.85055 -0.62272,-1.07837 -0.24302,-0.14429 -0.44047,-0.21264 -0.90371,-0.30377 0.43287,-0.0987 0.63032,-0.18226 0.82777,-0.33415 0.26579,-0.21264 0.43287,-0.524 0.43287,-0.82777 0,-0.71385 -0.76702,-1.23785 -1.81502,-1.23785 -0.45565,0 -0.83536,0.10632 -1.13913,0.31136 -0.34933,0.23542 -0.56957,0.58475 -0.56957,0.9189 0,0.28098 0.18986,0.48603 0.44047,0.48603 0.22782,0 0.41768,-0.16707 0.41768,-0.36452 0,-0.0532 -0.0152,-0.11392 -0.038,-0.18226 -0.0911,-0.20505 -0.0911,-0.20505 -0.0911,-0.2658 0,-0.31136 0.41768,-0.56197 0.93409,-0.56197 0.63031,0 1.0404,0.37211 1.0404,0.94927 0,0.25821 -0.11391,0.54679 -0.28098,0.69108 -0.19745,0.18226 -0.57716,0.30376 -0.94928,0.30376 -0.0607,0 -0.18986,-0.008 -0.37971,-0.0152 l 0,0.34174"
           inkscape:connector-curvature="0" />
        <path
           style="fill:#4d4d4d"
           id="path5384"
           d="m 296.48336,528.1659 c -0.50122,0 -1.00244,0.21264 -1.32899,0.56956 -0.44806,0.48603 -0.73664,1.30621 -0.73664,2.09601 0,1.60237 0.84296,2.70353 2.06563,2.70353 1.22266,0 2.08081,-1.09356 2.08081,-2.65038 0,-1.61756 -0.84296,-2.71872 -2.08081,-2.71872 m 0.0304,0.36452 c 0.32655,0 0.62273,0.15188 0.82777,0.44046 0.2582,0.34174 0.4025,1.03282 0.4025,1.86059 0,0.62272 -0.0835,1.19229 -0.24302,1.59478 -0.16707,0.44806 -0.56957,0.74423 -1.00244,0.74423 -0.48602,0 -0.90371,-0.34174 -1.07837,-0.88852 -0.12151,-0.3873 -0.18226,-0.85815 -0.18226,-1.36696 0,-0.56956 0.1215,-1.26064 0.28858,-1.68591 0.17466,-0.43287 0.54678,-0.69867 0.98724,-0.69867"
           inkscape:connector-curvature="0" />
      </g>
      <g
         id="text5282"
         style="font-size:7.59421015px;font-style:normal;font-variant:normal;font-weight:normal;font-stretch:normal;text-align:start;line-height:125%;writing-mode:lr-tb;text-anchor:start;fill:#4d4d4d;fill-opacity:1;stroke:none;font-family:URW Bookman L;-inkscape-font-specification:URW Bookman L"
         transform="matrix(0.93169014,-0.36325403,0.36325403,0.93169014,0,0)">
        <path
           style="fill:#4d4d4d"
           id="path5387"
           d="m 184.68246,596.26572 -0.72145,0 -0.13669,0.18226 -1.16192,1.67832 -1.19229,1.58719 0.11392,0.31136 2.37698,0 0,0.31896 c 0,0.34174 -0.0152,0.49363 -0.0683,0.60754 -0.0608,0.13669 -0.22783,0.22782 -0.41769,0.24301 l -0.2506,0.0152 0,0.22783 2.19472,0 0,-0.22783 -0.25061,-0.0152 c -0.18985,-0.0152 -0.34933,-0.10632 -0.41768,-0.24301 -0.0456,-0.11391 -0.0684,-0.27339 -0.0684,-0.60754 l 0,-0.31896 0.98725,0 0.16707,-0.43287 -1.15432,0 0,-3.32626 m -0.72145,3.32626 -1.95171,0 c 0.038,-0.0607 0.0759,-0.11391 0.12151,-0.16707 l 0.47084,-0.63791 0.67589,-0.9265 0.68347,-0.94927 0,2.68075"
           inkscape:connector-curvature="0" />
        <path
           style="fill:#4d4d4d"
           id="path5389"
           d="m 189.93113,595.99233 -0.28858,0 c -0.13669,0.23542 -0.22783,0.27339 -0.61513,0.27339 l -2.29345,0 0,2.72632 0.32655,0.0759 c 0.37971,-0.524 0.67589,-0.69866 1.19229,-0.69866 0.80499,0 1.3062,0.53919 1.3062,1.38974 0,0.87333 -0.54678,1.4353 -1.38974,1.4353 -0.49362,0 -0.90371,-0.21263 -0.90371,-0.47084 l 0.008,-0.0835 c 0.0684,-0.22024 0.0684,-0.22024 0.0684,-0.28099 0,-0.22783 -0.20505,-0.42528 -0.44047,-0.42528 -0.2582,0 -0.46325,0.22024 -0.46325,0.48603 0,0.63032 0.80499,1.11635 1.8378,1.11635 1.26824,0 2.14157,-0.77461 2.14157,-1.89096 0,-1.01762 -0.7822,-1.71629 -1.91374,-1.71629 -0.50881,0 -0.85055,0.12151 -1.29861,0.47844 l 0,-1.51884 2.59722,0 0.1291,-0.89612"
           inkscape:connector-curvature="0" />
      </g>
      <g
         id="text5290"
         style="font-size:7.59421015px;font-style:normal;font-variant:normal;font-weight:normal;font-stretch:normal;text-align:start;line-height:125%;writing-mode:lr-tb;text-anchor:start;fill:#4d4d4d;fill-opacity:1;stroke:none;font-family:URW Bookman L;-inkscape-font-specification:URW Bookman L"
         transform="matrix(0.96286079,-0.26999832,0.26999832,0.96286079,0,0)">
        <path
           style="fill:#4d4d4d"
           id="path5392"
           d="m 225.07309,576.08634 -0.72145,0 -0.1367,0.18226 -1.16191,1.67832 -1.19229,1.58719 0.11391,0.31136 2.37699,0 0,0.31896 c 0,0.34174 -0.0152,0.49362 -0.0684,0.60754 -0.0607,0.13669 -0.22783,0.22782 -0.41768,0.24301 l -0.25061,0.0152 0,0.22783 2.19473,0 0,-0.22783 -0.25061,-0.0152 c -0.18986,-0.0152 -0.34933,-0.10632 -0.41768,-0.24301 -0.0456,-0.11392 -0.0683,-0.2734 -0.0683,-0.60754 l 0,-0.31896 0.98725,0 0.16707,-0.43287 -1.15432,0 0,-3.32626 m -0.72145,3.32626 -1.95171,0 c 0.038,-0.0607 0.0759,-0.11391 0.1215,-0.16707 l 0.47085,-0.63791 0.67588,-0.9265 0.68348,-0.94927 0,2.68075"
           inkscape:connector-curvature="0" />
        <path
           style="fill:#4d4d4d"
           id="path5394"
           d="m 228.74216,575.98761 c -0.50122,0 -1.00244,0.21264 -1.32899,0.56957 -0.44805,0.48603 -0.73663,1.3062 -0.73663,2.096 0,1.60238 0.84295,2.70354 2.06562,2.70354 1.22267,0 2.08081,-1.09357 2.08081,-2.65038 0,-1.61756 -0.84295,-2.71873 -2.08081,-2.71873 m 0.0304,0.36453 c 0.32655,0 0.62272,0.15188 0.82777,0.44046 0.2582,0.34174 0.40249,1.03281 0.40249,1.86058 0,0.62273 -0.0835,1.19229 -0.24302,1.59479 -0.16707,0.44805 -0.56956,0.74423 -1.00243,0.74423 -0.48603,0 -0.90371,-0.34174 -1.07838,-0.88852 -0.12151,-0.38731 -0.18226,-0.85815 -0.18226,-1.36696 0,-0.56957 0.12151,-1.26064 0.28858,-1.68592 0.17467,-0.43287 0.54678,-0.69866 0.98725,-0.69866"
           inkscape:connector-curvature="0" />
      </g>
      <g
         id="text5298"
         style="font-size:7.59421015px;font-style:normal;font-variant:normal;font-weight:normal;font-stretch:normal;text-align:start;line-height:125%;writing-mode:lr-tb;text-anchor:start;fill:#4d4d4d;fill-opacity:1;stroke:none;font-family:URW Bookman L;-inkscape-font-specification:URW Bookman L"
         transform="matrix(0.89347849,-0.44910599,0.44910599,0.89347849,0,0)">
        <path
           style="fill:#4d4d4d"
           id="path5397"
           d="m 145.14188,611.1639 -0.28858,0 c -0.1367,0.23542 -0.22783,0.27339 -0.61514,0.27339 l -2.29345,0 0,2.72632 0.32655,0.0759 c 0.37971,-0.524 0.67589,-0.69866 1.1923,-0.69866 0.80498,0 1.3062,0.53919 1.3062,1.38974 0,0.87333 -0.54678,1.4353 -1.38974,1.4353 -0.49362,0 -0.90371,-0.21264 -0.90371,-0.47084 l 0.008,-0.0835 c 0.0683,-0.22024 0.0683,-0.22024 0.0683,-0.28099 0,-0.22783 -0.20504,-0.42528 -0.44046,-0.42528 -0.25821,0 -0.46325,0.22024 -0.46325,0.48603 0,0.63032 0.80499,1.11635 1.8378,1.11635 1.26823,0 2.14157,-0.77461 2.14157,-1.89096 0,-1.01762 -0.78221,-1.71629 -1.91375,-1.71629 -0.50881,0 -0.85055,0.12151 -1.29861,0.47844 l 0,-1.51884 2.59722,0 0.12911,-0.89612"
           inkscape:connector-curvature="0" />
        <path
           style="fill:#4d4d4d"
           id="path5399"
           d="m 148.26416,611.33857 c -0.50121,0 -1.00243,0.21263 -1.32898,0.56956 -0.44806,0.48603 -0.73664,1.30621 -0.73664,2.096 0,1.60238 0.84296,2.70354 2.06562,2.70354 1.22267,0 2.08082,-1.09357 2.08082,-2.65038 0,-1.61756 -0.84296,-2.71872 -2.08082,-2.71872 m 0.0304,0.36452 c 0.32655,0 0.62273,0.15188 0.82777,0.44046 0.2582,0.34174 0.40249,1.03282 0.40249,1.86058 0,0.62273 -0.0835,1.1923 -0.24301,1.59479 -0.16707,0.44806 -0.56957,0.74423 -1.00244,0.74423 -0.48603,0 -0.90371,-0.34174 -1.07838,-0.88852 -0.1215,-0.38731 -0.18226,-0.85815 -0.18226,-1.36696 0,-0.56957 0.12151,-1.26064 0.28858,-1.68591 0.17467,-0.43287 0.54679,-0.69867 0.98725,-0.69867"
           inkscape:connector-curvature="0" />
      </g>
      <g
         id="text5306"
         style="font-size:7.59421015px;font-style:normal;font-variant:normal;font-weight:normal;font-stretch:normal;text-align:start;line-height:125%;writing-mode:lr-tb;text-anchor:start;fill:#4d4d4d;fill-opacity:1;stroke:none;font-family:URW Bookman L;-inkscape-font-specification:URW Bookman L"
         transform="matrix(0.9841005,-0.17761253,0.17761253,0.9841005,0,0)">
        <path
           style="fill:#4d4d4d"
           id="path5402"
           d="m 259.82914,555.39568 c 0.31136,-0.0304 0.44046,-0.038 0.53159,-0.038 0.34174,0 0.70626,0.10631 0.91131,0.26579 0.24301,0.18986 0.3949,0.56197 0.3949,0.95687 0,0.77461 -0.48603,1.23027 -1.29861,1.23027 -0.33415,0 -0.62273,-0.0684 -0.83537,-0.20505 -0.14429,-0.0911 -0.2582,-0.2582 -0.2582,-0.37971 0,-0.0228 0.008,-0.0456 0.0152,-0.0835 0.0532,-0.16707 0.0532,-0.16707 0.0532,-0.2582 0,-0.24301 -0.17467,-0.42527 -0.42528,-0.42527 -0.2582,0 -0.46324,0.23542 -0.46324,0.524 0,0.28098 0.18226,0.56956 0.47843,0.7822 0.37971,0.2658 0.82777,0.3873 1.40493,0.3873 1.27583,0 2.18713,-0.66069 2.18713,-1.58719 0,-0.44805 -0.23542,-0.85055 -0.62272,-1.07837 -0.24302,-0.14429 -0.44047,-0.21264 -0.90371,-0.30377 0.43287,-0.0987 0.63032,-0.18226 0.82777,-0.33415 0.26579,-0.21263 0.43287,-0.524 0.43287,-0.82777 0,-0.71385 -0.76702,-1.23785 -1.81502,-1.23785 -0.45565,0 -0.83536,0.10632 -1.13913,0.31136 -0.34934,0.23542 -0.56957,0.58476 -0.56957,0.9189 0,0.28099 0.18986,0.48603 0.44047,0.48603 0.22782,0 0.41768,-0.16707 0.41768,-0.36452 0,-0.0532 -0.0152,-0.11392 -0.038,-0.18226 -0.0911,-0.20505 -0.0911,-0.20505 -0.0911,-0.2658 0,-0.31136 0.41768,-0.56197 0.93408,-0.56197 0.63032,0 1.04041,0.37211 1.04041,0.94927 0,0.25821 -0.11391,0.54679 -0.28098,0.69108 -0.19745,0.18226 -0.57717,0.30377 -0.94928,0.30377 -0.0607,0 -0.18986,-0.008 -0.37971,-0.0152 l 0,0.34174"
           inkscape:connector-curvature="0" />
        <path
           style="fill:#4d4d4d"
           id="path5404"
           d="m 266.80169,552.6086 -0.28858,0 c -0.13669,0.23542 -0.22783,0.27339 -0.61513,0.27339 l -2.29345,0 0,2.72632 0.32655,0.076 c 0.37971,-0.524 0.67588,-0.69867 1.19229,-0.69867 0.80499,0 1.3062,0.53919 1.3062,1.38974 0,0.87333 -0.54678,1.43531 -1.38974,1.43531 -0.49362,0 -0.90371,-0.21264 -0.90371,-0.47085 l 0.008,-0.0835 c 0.0684,-0.22023 0.0684,-0.22023 0.0684,-0.28099 0,-0.22782 -0.20505,-0.42527 -0.44047,-0.42527 -0.2582,0 -0.46325,0.22023 -0.46325,0.48603 0,0.63031 0.80499,1.11634 1.8378,1.11634 1.26823,0 2.14157,-0.77461 2.14157,-1.89095 0,-1.01763 -0.7822,-1.7163 -1.91374,-1.7163 -0.50881,0 -0.85055,0.12151 -1.29861,0.47844 l 0,-1.51884 2.59722,0 0.1291,-0.89612"
           inkscape:connector-curvature="0" />
      </g>
    </g>
    <g
       transform="translate(-0.91788306,-10.000012)"
       id="g5027">
      <g
         id="g4985"
         transform="matrix(1.8117095,0,0,1.8117095,46.685694,42.809963)"
         inkscape:label="Gear24"
         style="fill:#4d4d4d;stroke:#000000;stroke-width:2;stroke-opacity:1" />
      <g
         id="g5407">
        <path
           transform="matrix(1.8117095,0,0,1.8117095,46.685694,42.809963)"
           style="fill:#4d4d4d;stroke:#000000;stroke-width:2;stroke-opacity:1;enable-background:new"
           d="M 7.678,-0.618 7.871,-0.634 8.385,-0.55 9.1,-0.251 9.1,0.251 8.385,0.55 7.871,0.634 7.678,0.618 7.577,1.39 7.767,1.425 8.242,1.639 8.855,2.113 8.725,2.597 7.957,2.701 7.439,2.649 7.257,2.585 6.959,3.304 7.134,3.387 7.537,3.717 8.006,4.333 7.756,4.767 6.987,4.669 6.5,4.484 6.34,4.375 5.867,4.992 6.014,5.118 6.318,5.541 6.612,6.258 6.258,6.612 5.541,6.318 5.118,6.014 4.992,5.867 4.375,6.34 4.484,6.5 4.669,6.987 4.767,7.756 4.333,8.006 3.717,7.537 3.387,7.134 3.304,6.959 2.585,7.257 2.649,7.439 2.701,7.957 2.597,8.725 2.113,8.855 1.639,8.242 1.425,7.767 1.39,7.577 0.618,7.678 0.634,7.871 0.55,8.385 0.251,9.1 -0.251,9.1 -0.55,8.385 -0.634,7.871 -0.618,7.678 -1.39,7.577 -1.425,7.767 -1.639,8.242 -2.113,8.855 -2.597,8.725 -2.701,7.957 -2.649,7.439 -2.585,7.257 -3.304,6.959 -3.387,7.134 -3.717,7.537 -4.333,8.006 -4.767,7.756 -4.669,6.987 -4.484,6.5 -4.375,6.34 -4.992,5.867 -5.118,6.014 -5.541,6.318 -6.258,6.612 -6.612,6.258 -6.318,5.541 -6.014,5.118 -5.867,4.992 -6.34,4.375 -6.5,4.484 -6.987,4.669 -7.756,4.767 -8.006,4.333 -7.537,3.717 -7.134,3.387 -6.959,3.304 -7.257,2.585 -7.439,2.649 -7.957,2.701 -8.725,2.597 -8.855,2.113 -8.242,1.639 -7.767,1.425 -7.577,1.39 -7.678,0.618 -7.871,0.634 -8.385,0.55 -9.1,0.251 l 0,-0.502 0.715,-0.299 0.514,-0.084 0.193,0.016 0.101,-0.772 -0.19,-0.035 -0.475,-0.214 -0.613,-0.474 0.13,-0.484 0.768,-0.104 0.518,0.052 0.182,0.064 0.298,-0.719 -0.175,-0.083 -0.403,-0.33 -0.469,-0.616 0.25,-0.434 0.769,0.098 0.487,0.185 0.16,0.109 0.473,-0.617 -0.147,-0.126 -0.304,-0.423 -0.294,-0.717 0.354,-0.354 0.717,0.294 0.423,0.304 0.126,0.147 0.617,-0.473 -0.109,-0.16 -0.185,-0.487 -0.098,-0.769 0.434,-0.25 0.616,0.469 0.33,0.403 0.083,0.175 0.719,-0.298 -0.064,-0.182 -0.052,-0.518 0.104,-0.768 0.484,-0.13 0.474,0.613 0.214,0.475 0.035,0.19 0.772,-0.101 -0.016,-0.193 0.084,-0.514 0.299,-0.715 0.502,0 0.299,0.715 0.084,0.514 -0.016,0.193 0.772,0.101 0.035,-0.19 0.214,-0.475 0.474,-0.613 0.484,0.13 0.104,0.768 -0.052,0.518 -0.064,0.182 0.719,0.298 0.083,-0.175 0.33,-0.403 0.616,-0.469 0.434,0.25 -0.098,0.769 -0.185,0.487 -0.109,0.16 0.617,0.473 0.126,-0.147 0.423,-0.304 0.717,-0.294 0.354,0.354 -0.294,0.717 -0.304,0.423 -0.147,0.126 0.473,0.617 0.16,-0.109 0.487,-0.185 0.769,-0.098 0.25,0.434 -0.469,0.616 -0.403,0.33 -0.175,0.083 0.298,0.719 0.182,-0.064 0.518,-0.052 0.768,0.104 0.13,0.484 -0.613,0.474 -0.475,0.214 -0.19,0.035 z"
           id="path4987"
           inkscape:connector-curvature="0" />
        <g
           id="g5023"
           transform="matrix(1.8117095,0,0,1.8117095,256.15008,42.809963)"
           inkscape:label="Gear24"
           style="fill:#4d4d4d;stroke:#000000;stroke-width:2;stroke-opacity:1">
          <path
             id="path5025"
             d="M 7.678,-0.618 7.871,-0.634 8.385,-0.55 9.1,-0.251 9.1,0.251 8.385,0.55 7.871,0.634 7.678,0.618 7.577,1.39 7.767,1.425 8.242,1.639 8.855,2.113 8.725,2.597 7.957,2.701 7.439,2.649 7.257,2.585 6.959,3.304 7.134,3.387 7.537,3.717 8.006,4.333 7.756,4.767 6.987,4.669 6.5,4.484 6.34,4.375 5.867,4.992 6.014,5.118 6.318,5.541 6.612,6.258 6.258,6.612 5.541,6.318 5.118,6.014 4.992,5.867 4.375,6.34 4.484,6.5 4.669,6.987 4.767,7.756 4.333,8.006 3.717,7.537 3.387,7.134 3.304,6.959 2.585,7.257 2.649,7.439 2.701,7.957 2.597,8.725 2.113,8.855 1.639,8.242 1.425,7.767 1.39,7.577 0.618,7.678 0.634,7.871 0.55,8.385 0.251,9.1 -0.251,9.1 -0.55,8.385 -0.634,7.871 -0.618,7.678 -1.39,7.577 -1.425,7.767 -1.639,8.242 -2.113,8.855 -2.597,8.725 -2.701,7.957 -2.649,7.439 -2.585,7.257 -3.304,6.959 -3.387,7.134 -3.717,7.537 -4.333,8.006 -4.767,7.756 -4.669,6.987 -4.484,6.5 -4.375,6.34 -4.992,5.867 -5.118,6.014 -5.541,6.318 -6.258,6.612 -6.612,6.258 -6.318,5.541 -6.014,5.118 -5.867,4.992 -6.34,4.375 -6.5,4.484 -6.987,4.669 -7.756,4.767 -8.006,4.333 -7.537,3.717 -7.134,3.387 -6.959,3.304 -7.257,2.585 -7.439,2.649 -7.957,2.701 -8.725,2.597 -8.855,2.113 -8.242,1.639 -7.767,1.425 -7.577,1.39 -7.678,0.618 -7.871,0.634 -8.385,0.55 -9.1,0.251 l 0,-0.502 0.715,-0.299 0.514,-0.084 0.193,0.016 0.101,-0.772 -0.19,-0.035 -0.475,-0.214 -0.613,-0.474 0.13,-0.484 0.768,-0.104 0.518,0.052 0.182,0.064 0.298,-0.719 -0.175,-0.083 -0.403,-0.33 -0.469,-0.616 0.25,-0.434 0.769,0.098 0.487,0.185 0.16,0.109 0.473,-0.617 -0.147,-0.126 -0.304,-0.423 -0.294,-0.717 0.354,-0.354 0.717,0.294 0.423,0.304 0.126,0.147 0.617,-0.473 -0.109,-0.16 -0.185,-0.487 -0.098,-0.769 0.434,-0.25 0.616,0.469 0.33,0.403 0.083,0.175 0.719,-0.298 -0.064,-0.182 -0.052,-0.518 0.104,-0.768 0.484,-0.13 0.474,0.613 0.214,0.475 0.035,0.19 0.772,-0.101 -0.016,-0.193 0.084,-0.514 0.299,-0.715 0.502,0 0.299,0.715 0.084,0.514 -0.016,0.193 0.772,0.101 0.035,-0.19 0.214,-0.475 0.474,-0.613 0.484,0.13 0.104,0.768 -0.052,0.518 -0.064,0.182 0.719,0.298 0.083,-0.175 0.33,-0.403 0.616,-0.469 0.434,0.25 -0.098,0.769 -0.185,0.487 -0.109,0.16 0.617,0.473 0.126,-0.147 0.423,-0.304 0.717,-0.294 0.354,0.354 -0.294,0.717 -0.304,0.423 -0.147,0.126 0.473,0.617 0.16,-0.109 0.487,-0.185 0.769,-0.098 0.25,0.434 -0.469,0.616 -0.403,0.33 -0.175,0.083 0.298,0.719 0.182,-0.064 0.518,-0.052 0.768,0.104 0.13,0.484 -0.613,0.474 -0.475,0.214 -0.19,0.035 z"
             style="fill:#4d4d4d;stroke:#000000;stroke-width:2;stroke-opacity:1"
             inkscape:connector-curvature="0" />
        </g>
      </g>
    </g>
  </g>
</svg>
